STARTFONT 2.1
FONT -Adobe-Courier-Bold-R-Normal--14-140-75-75-M-90-ISO8859-2
SIZE 14 75 75
FONTBOUNDINGBOX 11 16 -1 -4
COMMENT $XConsortium: courB14.bdf,v 1.11 95/01/26 17:59:58 gildea Exp $
COMMENT 
COMMENT +
COMMENT  Copyright 1984-1989, 1994 Adobe Systems Incorporated.
COMMENT  Copyright 1988, 1994 Digital Equipment Corporation.
COMMENT
COMMENT  Adobe is a trademark of Adobe Systems Incorporated which may be
COMMENT  registered in certain jurisdictions.
COMMENT  Permission to use these trademarks is hereby granted only in
COMMENT  association with the images described in this file.
COMMENT
COMMENT  Permission to use, copy, modify, distribute and sell this software
COMMENT  and its documentation for any purpose and without fee is hereby
COMMENT  granted, provided that the above copyright notices appear in all
COMMENT  copies and that both those copyright notices and this permission
COMMENT  notice appear in supporting documentation, and that the names of
COMMENT  Adobe Systems and Digital Equipment Corporation not be used in
COMMENT  advertising or publicity pertaining to distribution of the software
COMMENT  without specific, written prior permission.  Adobe Systems and
COMMENT  Digital Equipment Corporation make no representations about the
COMMENT  suitability of this software for any purpose.  It is provided "as
COMMENT  is" without express or implied warranty.
COMMENT -
COMMENT  
COMMENT  Translation to ISO8859-2 by Cub Soft;  Petr.Kolar@vslib.cz
COMMENT  
STARTPROPERTIES 28
FOUNDRY "Adobe"
FAMILY_NAME "Courier"
WEIGHT_NAME "Bold"
SLANT "R"
SETWIDTH_NAME "Normal"
ADD_STYLE_NAME ""
PIXEL_SIZE 14
POINT_SIZE 140
RESOLUTION_X 75
RESOLUTION_Y 75
SPACING "M"
AVERAGE_WIDTH 90
CHARSET_REGISTRY "ISO8859"
CHARSET_ENCODING "2"
CAP_HEIGHT 9
X_HEIGHT 7
FONT_ASCENT 12
FONT_DESCENT 3
FACE_NAME "Courier Bold"

STARTCHAR space
ENCODING 32
SWIDTH 600 0
DWIDTH 9 0
BBX 1 1 0 0
BITMAP
00
ENDCHAR
STARTCHAR exclam
ENCODING 33
SWIDTH 600 0
DWIDTH 9 0
BBX 2 10 3 0
BITMAP
c0
c0
c0
c0
c0
c0
80
00
c0
c0
ENDCHAR
STARTCHAR quotedbl
ENCODING 34
SWIDTH 600 0
DWIDTH 9 0
BBX 5 4 2 5
BITMAP
d8
d8
d8
48
ENDCHAR
STARTCHAR numbersign
ENCODING 35
SWIDTH 600 0
DWIDTH 9 0
BBX 7 9 0 0
BITMAP
28
28
fe
28
28
fe
28
28
28
ENDCHAR
STARTCHAR dollar
ENCODING 36
SWIDTH 600 0
DWIDTH 9 0
BBX 6 12 1 -1
BITMAP
30
30
7c
cc
c0
70
38
0c
cc
f8
30
30
ENDCHAR
STARTCHAR percent
ENCODING 37
SWIDTH 600 0
DWIDTH 9 0
BBX 7 10 1 0
BITMAP
60
90
90
60
0c
30
cc
12
12
0c
ENDCHAR
STARTCHAR ampersand
ENCODING 38
SWIDTH 600 0
DWIDTH 9 0
BBX 8 9 1 0
BITMAP
3c
6c
60
30
3a
6e
cc
de
73
ENDCHAR
STARTCHAR apostrophe
ENCODING 39
SWIDTH 600 0
DWIDTH 9 0
BBX 3 4 2 5
BITMAP
60
60
c0
80
ENDCHAR
STARTCHAR parenleft
ENCODING 40
SWIDTH 600 0
DWIDTH 9 0
BBX 4 12 3 -2
BITMAP
30
60
60
c0
c0
c0
c0
c0
c0
60
60
30
ENDCHAR
STARTCHAR parenright
ENCODING 41
SWIDTH 600 0
DWIDTH 9 0
BBX 4 12 2 -2
BITMAP
c0
60
60
30
30
30
30
30
30
60
60
c0
ENDCHAR
STARTCHAR asterisk
ENCODING 42
SWIDTH 600 0
DWIDTH 9 0
BBX 5 5 2 4
BITMAP
20
a8
70
70
88
ENDCHAR
STARTCHAR plus
ENCODING 43
SWIDTH 600 0
DWIDTH 9 0
BBX 7 7 1 1
BITMAP
10
10
10
fe
10
10
10
ENDCHAR
STARTCHAR comma
ENCODING 44
SWIDTH 600 0
DWIDTH 9 0
BBX 3 4 2 -2
BITMAP
60
60
c0
80
ENDCHAR
STARTCHAR minus
ENCODING 45
SWIDTH 600 0
DWIDTH 9 0
BBX 7 1 1 4
BITMAP
fe
ENDCHAR
STARTCHAR period
ENCODING 46
SWIDTH 600 0
DWIDTH 9 0
BBX 2 2 3 0
BITMAP
c0
c0
ENDCHAR
STARTCHAR slash
ENCODING 47
SWIDTH 600 0
DWIDTH 9 0
BBX 7 12 0 -2
BITMAP
06
06
0c
0c
18
18
30
30
60
60
c0
c0
ENDCHAR
STARTCHAR zero
ENCODING 48
SWIDTH 600 0
DWIDTH 9 0
BBX 7 10 1 0
BITMAP
38
6c
c6
c6
c6
c6
c6
c6
6c
38
ENDCHAR
STARTCHAR one
ENCODING 49
SWIDTH 600 0
DWIDTH 9 0
BBX 6 10 2 0
BITMAP
30
f0
30
30
30
30
30
30
30
fc
ENDCHAR
STARTCHAR two
ENCODING 50
SWIDTH 600 0
DWIDTH 9 0
BBX 6 10 1 0
BITMAP
78
cc
cc
0c
0c
18
30
60
c0
fc
ENDCHAR
STARTCHAR three
ENCODING 51
SWIDTH 600 0
DWIDTH 9 0
BBX 6 10 1 0
BITMAP
78
cc
0c
0c
38
08
0c
0c
cc
78
ENDCHAR
STARTCHAR four
ENCODING 52
SWIDTH 600 0
DWIDTH 9 0
BBX 7 10 1 0
BITMAP
0c
1c
3c
2c
6c
4c
cc
fe
0c
1e
ENDCHAR
STARTCHAR five
ENCODING 53
SWIDTH 600 0
DWIDTH 9 0
BBX 6 10 2 0
BITMAP
fc
c0
c0
c0
f8
8c
0c
0c
cc
78
ENDCHAR
STARTCHAR six
ENCODING 54
SWIDTH 600 0
DWIDTH 9 0
BBX 6 10 2 0
BITMAP
3c
60
c0
c0
d8
ec
cc
cc
cc
78
ENDCHAR
STARTCHAR seven
ENCODING 55
SWIDTH 600 0
DWIDTH 9 0
BBX 6 10 1 0
BITMAP
fc
8c
0c
18
18
18
18
30
30
30
ENDCHAR
STARTCHAR eight
ENCODING 56
SWIDTH 600 0
DWIDTH 9 0
BBX 6 10 1 0
BITMAP
78
cc
cc
cc
78
cc
cc
cc
cc
78
ENDCHAR
STARTCHAR nine
ENCODING 57
SWIDTH 600 0
DWIDTH 9 0
BBX 6 10 1 0
BITMAP
78
cc
cc
cc
cc
7c
0c
0c
18
f0
ENDCHAR
STARTCHAR colon
ENCODING 58
SWIDTH 600 0
DWIDTH 9 0
BBX 2 7 3 0
BITMAP
c0
c0
00
00
00
c0
c0
ENDCHAR
STARTCHAR semicolon
ENCODING 59
SWIDTH 600 0
DWIDTH 9 0
BBX 3 9 2 -2
BITMAP
60
60
00
00
00
60
60
c0
80
ENDCHAR
STARTCHAR less
ENCODING 60
SWIDTH 600 0
DWIDTH 9 0
BBX 8 7 0 1
BITMAP
07
1c
70
c0
70
1c
07
ENDCHAR
STARTCHAR equal
ENCODING 61
SWIDTH 600 0
DWIDTH 9 0
BBX 7 4 1 2
BITMAP
fe
00
00
fe
ENDCHAR
STARTCHAR greater
ENCODING 62
SWIDTH 600 0
DWIDTH 9 0
BBX 8 7 0 1
BITMAP
e0
38
0e
03
0e
38
e0
ENDCHAR
STARTCHAR question
ENCODING 63
SWIDTH 600 0
DWIDTH 9 0
BBX 6 9 2 0
BITMAP
f8
cc
8c
0c
38
30
00
30
30
ENDCHAR
STARTCHAR at
ENCODING 64
SWIDTH 600 0
DWIDTH 9 0
BBX 7 9 1 0
BITMAP
78
c4
9c
b4
a4
b4
9e
c0
78
ENDCHAR
STARTCHAR A
ENCODING 65
SWIDTH 600 0
DWIDTH 9 0
BBX 9 9 0 0
BITMAP
7c00
1c00
3600
3600
3600
6300
7f00
6300
f780
ENDCHAR
STARTCHAR B
ENCODING 66
SWIDTH 600 0
DWIDTH 9 0
BBX 8 9 0 0
BITMAP
fe
63
63
63
7e
63
63
63
fe
ENDCHAR
STARTCHAR C
ENCODING 67
SWIDTH 600 0
DWIDTH 9 0
BBX 7 9 1 0
BITMAP
3a
6e
c6
c0
c0
c0
c0
66
3c
ENDCHAR
STARTCHAR D
ENCODING 68
SWIDTH 600 0
DWIDTH 9 0
BBX 8 9 0 0
BITMAP
fc
66
63
63
63
63
63
66
fc
ENDCHAR
STARTCHAR E
ENCODING 69
SWIDTH 600 0
DWIDTH 9 0
BBX 8 9 0 0
BITMAP
ff
63
63
68
78
68
63
63
ff
ENDCHAR
STARTCHAR F
ENCODING 70
SWIDTH 600 0
DWIDTH 9 0
BBX 8 9 0 0
BITMAP
ff
63
63
68
78
68
60
60
f8
ENDCHAR
STARTCHAR G
ENCODING 71
SWIDTH 600 0
DWIDTH 9 0
BBX 9 9 0 0
BITMAP
3d00
6700
c300
c000
c000
cf80
c300
6300
3f00
ENDCHAR
STARTCHAR H
ENCODING 72
SWIDTH 600 0
DWIDTH 9 0
BBX 9 9 0 0
BITMAP
f780
6300
6300
6300
7f00
6300
6300
6300
f780
ENDCHAR
STARTCHAR I
ENCODING 73
SWIDTH 600 0
DWIDTH 9 0
BBX 6 9 1 0
BITMAP
fc
30
30
30
30
30
30
30
fc
ENDCHAR
STARTCHAR J
ENCODING 74
SWIDTH 600 0
DWIDTH 9 0
BBX 9 9 0 0
BITMAP
1f80
0600
0600
0600
0600
c600
c600
c600
7c00
ENDCHAR
STARTCHAR K
ENCODING 75
SWIDTH 600 0
DWIDTH 9 0
BBX 9 9 0 0
BITMAP
f700
6600
6c00
7800
7c00
6600
6600
6300
f380
ENDCHAR
STARTCHAR L
ENCODING 76
SWIDTH 600 0
DWIDTH 9 0
BBX 8 9 0 0
BITMAP
f8
60
60
60
60
63
63
63
ff
ENDCHAR
STARTCHAR M
ENCODING 77
SWIDTH 600 0
DWIDTH 9 0
BBX 9 9 0 0
BITMAP
e380
6300
7700
7700
6b00
6b00
6300
6300
f780
ENDCHAR
STARTCHAR N
ENCODING 78
SWIDTH 600 0
DWIDTH 9 0
BBX 9 9 0 0
BITMAP
e780
6300
7300
7300
6b00
6b00
6700
6700
f300
ENDCHAR
STARTCHAR O
ENCODING 79
SWIDTH 600 0
DWIDTH 9 0
BBX 8 9 0 0
BITMAP
3c
66
c3
c3
c3
c3
c3
66
3c
ENDCHAR
STARTCHAR P
ENCODING 80
SWIDTH 600 0
DWIDTH 9 0
BBX 8 9 0 0
BITMAP
fe
63
63
63
66
7c
60
60
f8
ENDCHAR
STARTCHAR Q
ENCODING 81
SWIDTH 600 0
DWIDTH 9 0
BBX 8 11 0 -2
BITMAP
3c
66
c3
c3
c3
c3
c3
66
3c
3d
6e
ENDCHAR
STARTCHAR R
ENCODING 82
SWIDTH 600 0
DWIDTH 9 0
BBX 9 9 0 0
BITMAP
fe00
6300
6300
6300
6600
7c00
6600
6300
f380
ENDCHAR
STARTCHAR S
ENCODING 83
SWIDTH 600 0
DWIDTH 9 0
BBX 7 9 1 0
BITMAP
7a
ce
c6
c0
7c
06
c6
e6
bc
ENDCHAR
STARTCHAR T
ENCODING 84
SWIDTH 600 0
DWIDTH 9 0
BBX 8 9 0 0
BITMAP
ff
db
db
18
18
18
18
18
3c
ENDCHAR
STARTCHAR U
ENCODING 85
SWIDTH 600 0
DWIDTH 9 0
BBX 9 9 0 0
BITMAP
f780
6300
6300
6300
6300
6300
6300
6300
3e00
ENDCHAR
STARTCHAR V
ENCODING 86
SWIDTH 600 0
DWIDTH 9 0
BBX 9 9 0 0
BITMAP
f780
6300
6300
6300
3600
3600
3600
1c00
1c00
ENDCHAR
STARTCHAR W
ENCODING 87
SWIDTH 600 0
DWIDTH 9 0
BBX 9 9 0 0
BITMAP
f780
6300
6b00
6b00
6b00
7700
7700
6300
6300
ENDCHAR
STARTCHAR X
ENCODING 88
SWIDTH 600 0
DWIDTH 9 0
BBX 8 9 0 0
BITMAP
e7
66
66
3c
18
3c
66
66
e7
ENDCHAR
STARTCHAR Y
ENCODING 89
SWIDTH 600 0
DWIDTH 9 0
BBX 10 9 -1 0
BITMAP
f3c0
6180
3300
3300
1e00
0c00
0c00
0c00
3f00
ENDCHAR
STARTCHAR Z
ENCODING 90
SWIDTH 600 0
DWIDTH 9 0
BBX 7 9 1 0
BITMAP
fe
c6
cc
18
18
30
66
c6
fe
ENDCHAR
STARTCHAR bracketleft
ENCODING 91
SWIDTH 600 0
DWIDTH 9 0
BBX 4 12 3 -2
BITMAP
f0
c0
c0
c0
c0
c0
c0
c0
c0
c0
c0
f0
ENDCHAR
STARTCHAR backslash
ENCODING 92
SWIDTH 600 0
DWIDTH 9 0
BBX 7 12 1 -2
BITMAP
c0
c0
60
60
30
30
18
18
0c
0c
06
06
ENDCHAR
STARTCHAR bracketright
ENCODING 93
SWIDTH 600 0
DWIDTH 9 0
BBX 4 12 2 -2
BITMAP
f0
30
30
30
30
30
30
30
30
30
30
f0
ENDCHAR
STARTCHAR asciicircum
ENCODING 94
SWIDTH 600 0
DWIDTH 9 0
BBX 5 4 2 5
BITMAP
20
70
d8
88
ENDCHAR
STARTCHAR underscore
ENCODING 95
SWIDTH 600 0
DWIDTH 9 0
BBX 9 1 0 -2
BITMAP
ff80
ENDCHAR
STARTCHAR grave
ENCODING 96
SWIDTH 600 0
DWIDTH 9 0
BBX 3 2 2 7
BITMAP
c0
60
ENDCHAR
STARTCHAR a
ENCODING 97
SWIDTH 600 0
DWIDTH 9 0
BBX 8 7 0 0
BITMAP
7c
06
06
7e
c6
ce
77
ENDCHAR
STARTCHAR b
ENCODING 98
SWIDTH 600 0
DWIDTH 9 0
BBX 8 10 0 0
BITMAP
e0
60
60
6e
73
63
63
63
73
ee
ENDCHAR
STARTCHAR c
ENCODING 99
SWIDTH 600 0
DWIDTH 9 0
BBX 8 7 0 0
BITMAP
3d
67
c3
c0
c0
63
3e
ENDCHAR
STARTCHAR d
ENCODING 100
SWIDTH 600 0
DWIDTH 9 0
BBX 8 10 1 0
BITMAP
0e
06
06
76
ce
c6
c6
c6
ce
77
ENDCHAR
STARTCHAR e
ENCODING 101
SWIDTH 600 0
DWIDTH 9 0
BBX 8 7 0 0
BITMAP
3c
66
c3
ff
c0
67
3e
ENDCHAR
STARTCHAR f
ENCODING 102
SWIDTH 600 0
DWIDTH 9 0
BBX 6 10 2 0
BITMAP
3c
60
60
f8
60
60
60
60
60
f8
ENDCHAR
STARTCHAR g
ENCODING 103
SWIDTH 600 0
DWIDTH 9 0
BBX 8 10 1 -3
BITMAP
77
ce
c6
c6
c6
ce
76
06
06
3c
ENDCHAR
STARTCHAR h
ENCODING 104
SWIDTH 600 0
DWIDTH 9 0
BBX 9 10 0 0
BITMAP
e000
6000
6000
6e00
7300
6300
6300
6300
6300
f780
ENDCHAR
STARTCHAR i
ENCODING 105
SWIDTH 600 0
DWIDTH 9 0
BBX 6 10 2 0
BITMAP
30
30
00
f0
30
30
30
30
30
fc
ENDCHAR
STARTCHAR j
ENCODING 106
SWIDTH 600 0
DWIDTH 9 0
BBX 5 13 1 -3
BITMAP
18
18
00
f8
18
18
18
18
18
18
18
18
f0
ENDCHAR
STARTCHAR k
ENCODING 107
SWIDTH 600 0
DWIDTH 9 0
BBX 8 10 0 0
BITMAP
e0
60
60
67
6c
78
78
6c
66
e7
ENDCHAR
STARTCHAR l
ENCODING 108
SWIDTH 600 0
DWIDTH 9 0
BBX 6 10 1 0
BITMAP
f0
30
30
30
30
30
30
30
30
fc
ENDCHAR
STARTCHAR m
ENCODING 109
SWIDTH 600 0
DWIDTH 9 0
BBX 10 7 -1 0
BITMAP
db00
6d80
6d80
6d80
6d80
6d80
edc0
ENDCHAR
STARTCHAR n
ENCODING 110
SWIDTH 600 0
DWIDTH 9 0
BBX 9 7 0 0
BITMAP
ee00
7300
6300
6300
6300
6300
f780
ENDCHAR
STARTCHAR o
ENCODING 111
SWIDTH 600 0
DWIDTH 9 0
BBX 8 7 0 0
BITMAP
3c
66
c3
c3
c3
66
3c
ENDCHAR
STARTCHAR p
ENCODING 112
SWIDTH 600 0
DWIDTH 9 0
BBX 8 10 0 -3
BITMAP
ee
73
63
63
63
73
6e
60
60
f0
ENDCHAR
STARTCHAR q
ENCODING 113
SWIDTH 600 0
DWIDTH 9 0
BBX 8 10 1 -3
BITMAP
77
ce
c6
c6
c6
ce
76
06
06
0f
ENDCHAR
STARTCHAR r
ENCODING 114
SWIDTH 600 0
DWIDTH 9 0
BBX 7 7 1 0
BITMAP
ee
70
60
60
60
60
fc
ENDCHAR
STARTCHAR s
ENCODING 115
SWIDTH 600 0
DWIDTH 9 0
BBX 7 7 1 0
BITMAP
7e
c6
c0
7c
06
c6
fc
ENDCHAR
STARTCHAR t
ENCODING 116
SWIDTH 600 0
DWIDTH 9 0
BBX 7 10 1 0
BITMAP
60
60
60
fc
60
60
60
60
66
3c
ENDCHAR
STARTCHAR u
ENCODING 117
SWIDTH 600 0
DWIDTH 9 0
BBX 9 7 0 0
BITMAP
e700
6300
6300
6300
6300
6700
3b80
ENDCHAR
STARTCHAR v
ENCODING 118
SWIDTH 600 0
DWIDTH 9 0
BBX 9 7 0 0
BITMAP
f780
6300
6300
3600
3600
1c00
1c00
ENDCHAR
STARTCHAR w
ENCODING 119
SWIDTH 600 0
DWIDTH 9 0
BBX 10 7 -1 0
BITMAP
e1c0
6d80
6d80
6d80
3f00
3300
3300
ENDCHAR
STARTCHAR x
ENCODING 120
SWIDTH 600 0
DWIDTH 9 0
BBX 8 7 0 0
BITMAP
e7
66
3c
18
3c
66
e7
ENDCHAR
STARTCHAR y
ENCODING 121
SWIDTH 600 0
DWIDTH 9 0
BBX 9 10 0 -3
BITMAP
e380
6300
6300
3600
3600
1c00
1c00
1800
1800
7c00
ENDCHAR
STARTCHAR z
ENCODING 122
SWIDTH 600 0
DWIDTH 9 0
BBX 6 7 1 0
BITMAP
fc
8c
18
30
60
c4
fc
ENDCHAR
STARTCHAR braceleft
ENCODING 123
SWIDTH 600 0
DWIDTH 9 0
BBX 4 12 3 -2
BITMAP
30
60
60
60
60
c0
60
60
60
60
60
30
ENDCHAR
STARTCHAR bar
ENCODING 124
SWIDTH 600 0
DWIDTH 9 0
BBX 2 12 3 -2
BITMAP
c0
c0
c0
c0
c0
c0
c0
c0
c0
c0
c0
c0
ENDCHAR
STARTCHAR braceright
ENCODING 125
SWIDTH 600 0
DWIDTH 9 0
BBX 4 12 2 -2
BITMAP
c0
60
60
60
60
30
60
60
60
60
60
c0
ENDCHAR
STARTCHAR asciitilde
ENCODING 126
SWIDTH 600 0
DWIDTH 9 0
BBX 6 3 1 3
BITMAP
64
fc
98
ENDCHAR
STARTCHAR nobreakspace
ENCODING 160
SWIDTH 600 0
DWIDTH 9 0
BBX 1 1 0 0
BITMAP
00
ENDCHAR
STARTCHAR Aogonek
ENCODING 161
SWIDTH 600 0
DWIDTH 9 0
BBX 9 12 0 -3
BITMAP
7c00
1c00
3600
3600
3600
6300
7f00
6300
f780
0c00
1000
1c00
ENDCHAR
STARTCHAR breve
ENCODING 162
SWIDTH 600 0
DWIDTH 9 0
BBX 6 2 1 7
BITMAP
cc
78
ENDCHAR
STARTCHAR Lstroke
ENCODING 163
SWIDTH 600 0
DWIDTH 9 0
BBX 8 9 0 0
BITMAP
f8
60
6c
78
70
e3
e3
63
ff
ENDCHAR
STARTCHAR currency
ENCODING 164
SWIDTH 600 0
DWIDTH 9 0
BBX 7 6 1 1
BITMAP
c6
7c
c6
c6
7c
c6
ENDCHAR
STARTCHAR Lcaron
ENCODING 165
SWIDTH 685 0
DWIDTH 10 0
BBX 9 10 0 0
BITMAP
0180
f980
6300
6200
6000
6000
6300
6300
6300
ff00
ENDCHAR
STARTCHAR Sacute
ENCODING 166
SWIDTH 600 0
DWIDTH 9 0
BBX 7 12 1 0
BITMAP
0c
18
00
7a
ce
c6
c0
7c
06
c6
e6
bc
ENDCHAR
STARTCHAR section
ENCODING 167
SWIDTH 600 0
DWIDTH 9 0
BBX 8 11 0 -1
BITMAP
3e
62
60
f0
8c
e3
39
0f
06
46
7c
ENDCHAR
STARTCHAR diaeresis
ENCODING 168
SWIDTH 600 0
DWIDTH 9 0
BBX 5 1 2 8
BITMAP
d8
ENDCHAR
STARTCHAR Scaron
ENCODING 169
SWIDTH 600 0
DWIDTH 9 0
BBX 7 12 1 0
BITMAP
6c
38
00
7a
ce
c6
c0
7c
06
c6
e6
bc
ENDCHAR
STARTCHAR Scedilla
ENCODING 170
SWIDTH 600 0
DWIDTH 9 0
BBX 7 13 1 -4
BITMAP
7a
ce
c6
c0
7c
06
c6
e6
bc
10
18
08
38
ENDCHAR
STARTCHAR Tcaron
ENCODING 171
SWIDTH 600 0
DWIDTH 9 0
BBX 8 12 0 0
BITMAP
6c
38
00
ff
db
db
18
18
18
18
18
3c
ENDCHAR
STARTCHAR Zacute
ENCODING 172
SWIDTH 600 0
DWIDTH 9 0
BBX 7 12 1 0
BITMAP
0c
18
00
fe
c6
cc
18
18
30
66
c6
fe
ENDCHAR
STARTCHAR hyphen
ENCODING 173
SWIDTH 600 0
DWIDTH 9 0
BBX 6 1 1 4
BITMAP
fc
ENDCHAR
STARTCHAR Zcaron
ENCODING 174
SWIDTH 600 0
DWIDTH 9 0
BBX 7 12 1 0
BITMAP
6c
38
00
fe
c6
cc
18
18
30
66
c6
fe
ENDCHAR
STARTCHAR Zabovedot
ENCODING 175
SWIDTH 600 0
DWIDTH 9 0
BBX 7 12 1 0
BITMAP
18
18
00
fe
c6
cc
18
18
30
66
c6
fe
ENDCHAR
STARTCHAR degree
ENCODING 176
SWIDTH 600 0
DWIDTH 9 0
BBX 5 5 2 5
BITMAP
70
88
88
88
70
ENDCHAR
STARTCHAR aogonek
ENCODING 177
SWIDTH 600 0
DWIDTH 9 0
BBX 8 10 0 -3
BITMAP
7c
06
06
7e
c6
ce
77
18
20
38
ENDCHAR
STARTCHAR ogonek
ENCODING 178
SWIDTH 600 0
DWIDTH 9 0
BBX 3 3 2 -3
BITMAP
60
80
e0
ENDCHAR
STARTCHAR lstroke
ENCODING 179
SWIDTH 600 0
DWIDTH 9 0
BBX 6 9 1 0
BITMAP
f0
30
3c
38
70
f0
30
30
fc
ENDCHAR
STARTCHAR acute
ENCODING 180
SWIDTH 600 0
DWIDTH 9 0
BBX 3 2 3 7
BITMAP
60
c0
ENDCHAR
STARTCHAR lcaron
ENCODING 181
SWIDTH 754 0
DWIDTH 11 0
BBX 8 11 1 0
BITMAP
03
f3
36
34
30
30
30
30
30
30
fc
ENDCHAR
STARTCHAR sacute
ENCODING 182
SWIDTH 600 0
DWIDTH 9 0
BBX 7 10 1 0
BITMAP
0c
18
00
7e
c6
c0
7c
06
c6
fc
ENDCHAR
STARTCHAR caron
ENCODING 183
SWIDTH 600 0
DWIDTH 9 0
BBX 5 2 2 7
BITMAP
d8
70
ENDCHAR
STARTCHAR cedilla
ENCODING 184
SWIDTH 600 0
DWIDTH 9 0
BBX 3 4 2 -3
BITMAP
40
60
20
e0
ENDCHAR
STARTCHAR scaron
ENCODING 185
SWIDTH 600 0
DWIDTH 9 0
BBX 7 10 1 0
BITMAP
6c
38
00
7e
c6
c0
7c
06
c6
fc
ENDCHAR
STARTCHAR scedilla
ENCODING 186
SWIDTH 600 0
DWIDTH 9 0
BBX 7 11 1 -4
BITMAP
7e
c6
c0
7c
06
c6
fc
10
18
08
38
ENDCHAR
STARTCHAR tcaron
ENCODING 187
SWIDTH 600 0
DWIDTH 9 0
BBX 7 12 1 0
BITMAP
06
06
6c
68
60
fc
60
60
60
60
66
3c
ENDCHAR
STARTCHAR zacute
ENCODING 188
SWIDTH 600 0
DWIDTH 9 0
BBX 6 10 1 0
BITMAP
18
30
00
fc
8c
18
30
60
c4
fc
ENDCHAR
STARTCHAR doubleacute
ENCODING 189
SWIDTH 600 0
DWIDTH 9 0
BBX 6 2 1 7
BITMAP
6c
d8
ENDCHAR
STARTCHAR zcaron
ENCODING 190
SWIDTH 600 0
DWIDTH 9 0
BBX 6 10 1 0
BITMAP
d8
70
00
fc
8c
18
30
60
c4
fc
ENDCHAR
STARTCHAR zabovedot
ENCODING 191
SWIDTH 600 0
DWIDTH 9 0
BBX 6 10 1 0
BITMAP
30
30
00
fc
8c
18
30
60
c4
fc
ENDCHAR
STARTCHAR Racute
ENCODING 192
SWIDTH 600 0
DWIDTH 9 0
BBX 9 12 0 0
BITMAP
0c00
1800
0000
fe00
6300
6300
6300
6600
7c00
6600
6300
f380
ENDCHAR
STARTCHAR Aacute
ENCODING 193
SWIDTH 600 0
DWIDTH 9 0
BBX 9 12 0 0
BITMAP
0600
0c00
0000
7c00
1c00
3600
3600
3600
6300
7f00
6300
f780
ENDCHAR
STARTCHAR Acircumflex
ENCODING 194
SWIDTH 600 0
DWIDTH 9 0
BBX 9 12 0 0
BITMAP
1c00
3600
0000
7c00
1c00
3600
3600
3600
6300
7f00
6300
f780
ENDCHAR
STARTCHAR Abreve
ENCODING 195
SWIDTH 600 0
DWIDTH 9 0
BBX 9 12 0 0
BITMAP
6600
3c00
0000
7c00
1c00
3600
3600
3600
6300
7f00
6300
f780
ENDCHAR
STARTCHAR Adiaeresis
ENCODING 196
SWIDTH 600 0
DWIDTH 9 0
BBX 9 11 0 0
BITMAP
3600
0000
7c00
1c00
3600
3600
3600
6300
7f00
6300
f780
ENDCHAR
STARTCHAR Lacute
ENCODING 197
SWIDTH 600 0
DWIDTH 9 0
BBX 8 12 0 0
BITMAP
18
30
00
f8
60
60
60
60
63
63
63
ff
ENDCHAR
STARTCHAR Cacute
ENCODING 198
SWIDTH 600 0
DWIDTH 9 0
BBX 7 12 1 0
BITMAP
0c
18
00
3a
6e
c6
c0
c0
c0
c0
66
3c
ENDCHAR
STARTCHAR Ccedilla
ENCODING 199
SWIDTH 600 0
DWIDTH 9 0
BBX 7 13 1 -4
BITMAP
3a
6e
c6
c0
c0
c0
c0
66
3c
10
18
08
38
ENDCHAR
STARTCHAR Ccaron
ENCODING 200
SWIDTH 600 0
DWIDTH 9 0
BBX 7 12 1 0
BITMAP
6c
38
00
3a
6e
c6
c0
c0
c0
c0
66
3c
ENDCHAR
STARTCHAR Eacute
ENCODING 201
SWIDTH 600 0
DWIDTH 9 0
BBX 8 12 0 0
BITMAP
0c
18
00
ff
63
63
68
78
68
63
63
ff
ENDCHAR
STARTCHAR Eogonek
ENCODING 202
SWIDTH 600 0
DWIDTH 9 0
BBX 8 12 0 -3
BITMAP
ff
63
63
68
78
68
63
63
ff
18
20
38
ENDCHAR
STARTCHAR Ediaeresis
ENCODING 203
SWIDTH 600 0
DWIDTH 9 0
BBX 8 11 0 0
BITMAP
36
00
ff
63
63
68
78
68
63
63
ff
ENDCHAR
STARTCHAR Ecaron
ENCODING 204
SWIDTH 600 0
DWIDTH 9 0
BBX 8 12 0 0
BITMAP
6c
38
00
ff
63
63
68
78
68
63
63
ff
ENDCHAR
STARTCHAR Iacute
ENCODING 205
SWIDTH 600 0
DWIDTH 9 0
BBX 6 12 1 0
BITMAP
18
30
00
fc
30
30
30
30
30
30
30
fc
ENDCHAR
STARTCHAR Icircumflex
ENCODING 206
SWIDTH 600 0
DWIDTH 9 0
BBX 6 12 1 0
BITMAP
38
6c
00
fc
30
30
30
30
30
30
30
fc
ENDCHAR
STARTCHAR Dcaron
ENCODING 207
SWIDTH 600 0
DWIDTH 9 0
BBX 8 12 0 0
BITMAP
6c
38
00
fc
66
63
63
63
63
63
66
fc
ENDCHAR
STARTCHAR Dstroke
ENCODING 208
SWIDTH 600 0
DWIDTH 9 0
BBX 8 9 0 0
BITMAP
fc
66
63
63
f3
63
63
66
fc
ENDCHAR
STARTCHAR Nacute
ENCODING 209
SWIDTH 600 0
DWIDTH 9 0
BBX 9 12 0 0
BITMAP
0600
0c00
0000
e780
6300
7300
7300
6b00
6b00
6700
6700
f300
ENDCHAR
STARTCHAR Ncaron
ENCODING 210
SWIDTH 600 0
DWIDTH 9 0
BBX 9 12 0 0
BITMAP
3600
1c00
0000
e780
6300
7300
7300
6b00
6b00
6700
6700
f300
ENDCHAR
STARTCHAR Oacute
ENCODING 211
SWIDTH 600 0
DWIDTH 9 0
BBX 8 12 0 0
BITMAP
0c
18
00
3c
66
c3
c3
c3
c3
c3
66
3c
ENDCHAR
STARTCHAR Ocircumflex
ENCODING 212
SWIDTH 600 0
DWIDTH 9 0
BBX 8 12 0 0
BITMAP
1c
36
00
3c
66
c3
c3
c3
c3
c3
66
3c
ENDCHAR
STARTCHAR Odoubleacute
ENCODING 213
SWIDTH 600 0
DWIDTH 9 0
BBX 8 12 0 0
BITMAP
36
6c
00
3c
66
c3
c3
c3
c3
c3
66
3c
ENDCHAR
STARTCHAR Odiaeresis
ENCODING 214
SWIDTH 600 0
DWIDTH 9 0
BBX 8 11 0 0
BITMAP
36
00
3c
66
c3
c3
c3
c3
c3
66
3c
ENDCHAR
STARTCHAR multiply
ENCODING 215
SWIDTH 600 0
DWIDTH 9 0
BBX 6 7 1 1
BITMAP
84
cc
78
30
78
cc
84
ENDCHAR
STARTCHAR Rcaron
ENCODING 216
SWIDTH 600 0
DWIDTH 9 0
BBX 9 12 0 0
BITMAP
6c00
3800
0000
fe00
6300
6300
6300
6600
7c00
6600
6300
f380
ENDCHAR
STARTCHAR Uring
ENCODING 217
SWIDTH 600 0
DWIDTH 9 0
BBX 9 13 0 0
BITMAP
0c00
1200
0c00
0000
f780
6300
6300
6300
6300
6300
6300
6300
3e00
ENDCHAR
STARTCHAR Uacute
ENCODING 218
SWIDTH 600 0
DWIDTH 9 0
BBX 9 12 0 0
BITMAP
0600
0c00
0000
f780
6300
6300
6300
6300
6300
6300
6300
3e00
ENDCHAR
STARTCHAR Udoubleacute
ENCODING 219
SWIDTH 600 0
DWIDTH 9 0
BBX 9 12 0 0
BITMAP
1b00
3600
0000
f780
6300
6300
6300
6300
6300
6300
6300
3e00
ENDCHAR
STARTCHAR Udiaeresis
ENCODING 220
SWIDTH 600 0
DWIDTH 9 0
BBX 9 11 0 0
BITMAP
3600
0000
f780
6300
6300
6300
6300
6300
6300
6300
3e00
ENDCHAR
STARTCHAR Yacute
ENCODING 221
SWIDTH 600 0
DWIDTH 9 0
BBX 10 12 -1 0
BITMAP
0600
0c00
0000
f3c0
6180
3300
1e00
1e00
0c00
0c00
0c00
3f00
ENDCHAR
STARTCHAR Tcedilla
ENCODING 222
SWIDTH 600 0
DWIDTH 9 0
BBX 8 13 0 -4
BITMAP
ff
db
db
18
18
18
18
18
3c
10
18
08
38
ENDCHAR
STARTCHAR ssharp
ENCODING 223
SWIDTH 600 0
DWIDTH 9 0
BBX 8 10 0 0
BITMAP
3c
66
66
66
6c
66
63
63
6b
ee
ENDCHAR
STARTCHAR racute
ENCODING 224
SWIDTH 600 0
DWIDTH 9 0
BBX 7 10 1 0
BITMAP
0c
18
00
ee
70
60
60
60
60
fc
ENDCHAR
STARTCHAR aacute
ENCODING 225
SWIDTH 600 0
DWIDTH 9 0
BBX 8 10 0 0
BITMAP
0c
18
00
7c
06
06
7e
c6
ce
77
ENDCHAR
STARTCHAR acircumflex
ENCODING 226
SWIDTH 600 0
DWIDTH 9 0
BBX 8 11 0 0
BITMAP
08
1c
36
00
7c
06
06
7e
c6
ce
77
ENDCHAR
STARTCHAR abreve
ENCODING 227
SWIDTH 600 0
DWIDTH 9 0
BBX 8 10 0 0
BITMAP
66
3c
00
7c
06
06
7e
c6
ce
77
ENDCHAR
STARTCHAR adiaeresis
ENCODING 228
SWIDTH 600 0
DWIDTH 9 0
BBX 8 9 0 0
BITMAP
36
00
7c
06
06
7e
c6
ce
77
ENDCHAR
STARTCHAR lacute
ENCODING 229
SWIDTH 600 0
DWIDTH 9 0
BBX 6 13 1 0
BITMAP
30
60
00
f0
30
30
30
30
30
30
30
30
fc
ENDCHAR
STARTCHAR cacute
ENCODING 230
SWIDTH 600 0
DWIDTH 9 0
BBX 8 10 0 0
BITMAP
06
0c
00
3d
67
c3
c0
c0
63
3e
ENDCHAR
STARTCHAR ccedilla
ENCODING 231
SWIDTH 600 0
DWIDTH 9 0
BBX 8 11 0 -4
BITMAP
3d
67
c3
c0
c0
63
3e
10
18
08
38
ENDCHAR
STARTCHAR ccaron
ENCODING 232
SWIDTH 600 0
DWIDTH 9 0
BBX 8 10 0 0
BITMAP
36
1c
00
3d
67
c3
c0
c0
63
3e
ENDCHAR
STARTCHAR eacute
ENCODING 233
SWIDTH 600 0
DWIDTH 9 0
BBX 8 10 0 0
BITMAP
0c
18
00
3c
66
c3
ff
c0
67
3e
ENDCHAR
STARTCHAR eogonek
ENCODING 234
SWIDTH 600 0
DWIDTH 9 0
BBX 8 10 0 -3
BITMAP
3c
66
c3
ff
c0
67
3e
18
20
38
ENDCHAR
STARTCHAR ediaeresis
ENCODING 235
SWIDTH 600 0
DWIDTH 9 0
BBX 8 9 0 0
BITMAP
36
00
3c
66
c3
ff
c0
67
3e
ENDCHAR
STARTCHAR ecaron
ENCODING 236
SWIDTH 600 0
DWIDTH 9 0
BBX 8 10 0 0
BITMAP
6c
38
00
3c
66
c3
ff
c0
67
3e
ENDCHAR
STARTCHAR iacute
ENCODING 237
SWIDTH 600 0
DWIDTH 9 0
BBX 6 10 1 0
BITMAP
18
30
00
f0
30
30
30
30
30
fc
ENDCHAR
STARTCHAR icircumflex
ENCODING 238
SWIDTH 600 0
DWIDTH 9 0
BBX 6 11 1 0
BITMAP
20
70
d8
00
f0
30
30
30
30
30
fc
ENDCHAR
STARTCHAR dcaron
ENCODING 239
SWIDTH 822 0
DWIDTH 12 0
BBX 11 11 1 0
BITMAP
0060
0e60
06c0
0680
7600
ce00
c600
c600
c600
ce00
7700
ENDCHAR
STARTCHAR dstroke
ENCODING 240
SWIDTH 754 0
DWIDTH 11 0
BBX 10 10 1 0
BITMAP
0600
3fc0
0600
7600
ce00
c600
c600
c600
ce00
7700
ENDCHAR
STARTCHAR nacute
ENCODING 241
SWIDTH 600 0
DWIDTH 9 0
BBX 9 10 0 0
BITMAP
0c00
1800
0000
ee00
7300
6300
6300
6300
6300
f780
ENDCHAR
STARTCHAR ncaron
ENCODING 242
SWIDTH 600 0
DWIDTH 9 0
BBX 9 10 0 0
BITMAP
6c00
3800
0000
ee00
7300
6300
6300
6300
6300
f780
ENDCHAR
STARTCHAR oacute
ENCODING 243
SWIDTH 600 0
DWIDTH 9 0
BBX 8 10 0 0
BITMAP
0c
18
00
3c
66
c3
c3
c3
66
3c
ENDCHAR
STARTCHAR ocircumflex
ENCODING 244
SWIDTH 600 0
DWIDTH 9 0
BBX 8 11 0 0
BITMAP
08
1c
36
00
3c
66
c3
c3
c3
66
3c
ENDCHAR
STARTCHAR odoubleacute
ENCODING 245
SWIDTH 600 0
DWIDTH 9 0
BBX 8 10 0 0
BITMAP
36
6c
00
3c
66
c3
c3
c3
66
3c
ENDCHAR
STARTCHAR odiaeresis
ENCODING 246
SWIDTH 600 0
DWIDTH 9 0
BBX 8 9 0 0
BITMAP
36
00
3c
66
c3
c3
c3
66
3c
ENDCHAR
STARTCHAR division
ENCODING 247
SWIDTH 600 0
DWIDTH 9 0
BBX 8 7 0 1
BITMAP
18
18
00
ff
00
18
18
ENDCHAR
STARTCHAR rcaron
ENCODING 248
SWIDTH 600 0
DWIDTH 9 0
BBX 7 10 1 0
BITMAP
6c
38
00
ee
70
60
60
60
60
fc
ENDCHAR
STARTCHAR uring
ENCODING 249
SWIDTH 600 0
DWIDTH 9 0
BBX 9 11 0 0
BITMAP
1800
2400
1800
0000
e700
6300
6300
6300
6300
6700
3b80
ENDCHAR
STARTCHAR uacute
ENCODING 250
SWIDTH 600 0
DWIDTH 9 0
BBX 9 10 0 0
BITMAP
0c00
1800
0000
e700
6300
6300
6300
6300
6700
3b80
ENDCHAR
STARTCHAR udoubleacute
ENCODING 251
SWIDTH 600 0
DWIDTH 9 0
BBX 9 10 0 0
BITMAP
3600
6c00
0000
e700
6300
6300
6300
6300
6700
3b80
ENDCHAR
STARTCHAR udiaeresis
ENCODING 252
SWIDTH 600 0
DWIDTH 9 0
BBX 9 9 0 0
BITMAP
3600
0000
e700
6300
6300
6300
6300
6700
3b80
ENDCHAR
STARTCHAR yacute
ENCODING 253
SWIDTH 600 0
DWIDTH 9 0
BBX 9 13 0 -3
BITMAP
0600
0c00
0000
e380
6300
6300
3600
3600
1c00
1c00
1800
1800
7c00
ENDCHAR
STARTCHAR tcedilla
ENCODING 254
SWIDTH 600 0
DWIDTH 9 0
BBX 7 14 1 -4
BITMAP
60
60
60
fc
60
60
60
60
66
3c
10
18
08
38
ENDCHAR
STARTCHAR abovedot
ENCODING 255
SWIDTH 600 0
DWIDTH 9 0
BBX 2 2 3 7
BITMAP
c0
c0
ENDCHAR
ENDFONT
